# xmcd
#
# Track frame offsets:
#	205
#	24277
#	51350
#	76337
#	101087
#	122410
#	144165
#	165157
#	190100
#	209585
#	234285
#	256170
#	282157
#
# Disc length: 4024 seconds
#
# Revision: 0
# Processed by: cddbd v1.5.2PL0 Copyright (c) Steve Scherf et al.
# Submitted via: dBpowerAMP V4.0
#
DISCID=a00fb60d
DTITLE=Niche - Exitos del grupo Vol.II
DYEAR=1992
DGENRE=Salsa
TTITLE0=La negra no quiere
TTITLE1=Nuestro sueño(version con violines)
TTITLE2=Mi hijo y yo
TTITLE3=Se pareció tanto a ti
TTITLE4=Como podré disimular
TTITLE5=Amor, amor
TTITLE6=Cali ají
TTITLE7=Tapando el hueco
TTITLE8=Bar y copas
TTITLE9=Una aventura 
TTITLE10=El amor vendrá
TTITLE11=Te enseñaré a olvidar
TTITLE12=Debiera olvidarla
EXTD=
EXTT0=
EXTT1=
EXTT2=
EXTT3=
EXTT4=
EXTT5=
EXTT6=
EXTT7=
EXTT8=
EXTT9=
EXTT10=
EXTT11=
EXTT12=
PLAYORDER=
